<svg xmlns="http://www.w3.org/2000/svg" viewBox="0 0 48 48" width="48" height="48" role="img" aria-label="Verzahnungs-Copilot">
<g fill="#009682">
<rect x="21.4" y="3.2" width="5.2" height="6.2" rx="1.1" transform="rotate(0 24 24)"></rect><rect x="21.4" y="3.2" width="5.2" height="6.2" rx="1.1" transform="rotate(30 24 24)"></rect><rect x="21.4" y="3.2" width="5.2" height="6.2" rx="1.1" transform="rotate(60 24 24)"></rect><rect x="21.4" y="3.2" width="5.2" height="6.2" rx="1.1" transform="rotate(90 24 24)"></rect><rect x="21.4" y="3.2" width="5.2" height="6.2" rx="1.1" transform="rotate(120 24 24)"></rect><rect x="21.4" y="3.2" width="5.2" height="6.2" rx="1.1" transform="rotate(150 24 24)"></rect><rect x="21.4" y="3.2" width="5.2" height="6.2" rx="1.1" transform="rotate(180 24 24)"></rect><rect x="21.4" y="3.2" width="5.2" height="6.2" rx="1.1" transform="rotate(210 24 24)"></rect><rect x="21.4" y="3.2" width="5.2" height="6.2" rx="1.1" transform="rotate(240 24 24)"></rect><rect x="21.4" y="3.2" width="5.2" height="6.2" rx="1.1" transform="rotate(270 24 24)"></rect><rect x="21.4" y="3.2" width="5.2" height="6.2" rx="1.1" transform="rotate(300 24 24)"></rect><rect x="21.4" y="3.2" width="5.2" height="6.2" rx="1.1" transform="rotate(330 24 24)"></rect>
<path fill-rule="evenodd" d="M9 24a15 15 0 1 0 30 0a15 15 0 1 0 -30 0 M18.4 24a5.6 5.6 0 1 0 11.2 0a5.6 5.6 0 1 0 -11.2 0"></path>
</g>
</svg>